<?xml version="1.0" standalone="no"?>
<!DOCTYPE svg PUBLIC "-//W3C//DTD SVG 20010904//EN"
 "http://www.w3.org/TR/2001/REC-SVG-20010904/DTD/svg10.dtd">
<svg version="1.0" xmlns="http://www.w3.org/2000/svg"
 width="16.000000pt" height="16.000000pt" viewBox="0 0 16.000000 16.000000"
 preserveAspectRatio="xMidYMid meet">
<metadata>
Created by potrace 1.11, written by Peter Selinger 2001-2013
</metadata>
<g transform="translate(0.000000,16.000000) scale(0.003125,-0.003125)"
fill="#000000" stroke="none">
<path d="M2560 3844 c0 -161 -3 -213 -12 -216 -7 -2 -199 -3 -425 -2 -368 0
-413 -1 -414 -15 -1 -9 -2 -200 -3 -426 l-1 -410 -255 -2 c-140 0 -260 -2
-266 -2 -7 -1 -10 -70 -10 -210 -1 -183 1 -210 15 -213 9 -2 129 -3 266 -2
l251 1 -1 -411 c0 -226 1 -418 3 -427 3 -14 50 -15 425 -15 l422 -1 5 -214 5
-214 478 0 477 0 0 215 0 215 -262 -1 c-145 -1 -265 2 -268 7 -4 5 -5 375 -1
412 1 4 120 7 266 7 l265 0 0 213 0 213 -480 1 -480 0 0 -214 0 -213 -212 2
-213 3 -1 638 0 637 213 0 213 0 0 -213 0 -214 480 0 480 1 0 213 0 213 -267
2 -266 3 0 180 c1 99 2 194 2 211 l1 31 265 -1 265 -1 0 215 0 215 -480 0
-480 0 0 -211z"/>
</g>
</svg>
